<?xml version="1.0" encoding="UTF-8" standalone="no"?>
<!-- Created with Inkscape (http://www.inkscape.org/) -->

<svg
   width="50px"
   height="50px"
   viewBox="144 112 10 20"
   version="1.1"
   id="svg8497"
   xml:space="preserve"
   inkscape:version="1.2.2 (732a01da63, 2022-12-09)"
   sodipodi:docname="homescreenv2.svg"
   inkscape:export-filename="homescreenv2.jpg"
   inkscape:export-xdpi="96"
   inkscape:export-ydpi="96"
   xmlns:inkscape="http://www.inkscape.org/namespaces/inkscape"
   xmlns:sodipodi="http://sodipodi.sourceforge.net/DTD/sodipodi-0.dtd"
   xmlns="http://www.w3.org/2000/svg"
   xmlns:svg="http://www.w3.org/2000/svg"><sodipodi:namedview
     id="namedview8499"
     pagecolor="#ffffff"
     bordercolor="#999999"
     borderopacity="1"
     inkscape:showpageshadow="0"
     inkscape:pageopacity="0"
     inkscape:pagecheckerboard="0"
     inkscape:deskcolor="#d1d1d1"
     inkscape:document-units="mm"
     showgrid="false"
     inkscape:zoom="1.225"
     inkscape:cx="508.16327"
     inkscape:cy="390.61224"
     inkscape:window-width="3200"
     inkscape:window-height="1321"
     inkscape:window-x="-9"
     inkscape:window-y="-9"
     inkscape:window-maximized="1"
     inkscape:current-layer="layer1" /><defs
     id="defs8494" /><g
     inkscape:label="Layer 1"
     inkscape:groupmode="layer"
     id="layer1"><g
       style="fill:none;fill-opacity:1;stroke:#eee8de;stroke-opacity:1"
       id="g48122"
       transform="matrix(0.75251146,0,0,0.75251146,139.46986,114.22836)"><path
         d="M 4,19 V 6.2 C 4,5.0799 4,4.51984 4.21799,4.09202 4.40973,3.71569 4.71569,3.40973 5.09202,3.21799 5.51984,3 6.0799,3 7.2,3 h 9.6 c 1.1201,0 1.6802,0 2.108,0.21799 0.3763,0.19174 0.6823,0.4977 0.874,0.87403 C 20,4.51984 20,5.0799 20,6.2 V 17 H 6 c -1.10457,0 -2,0.8954 -2,2 z m 0,0 c 0,1.1046 0.89543,2 2,2 H 20 M 9,7 h 6 m -6,4 h 6 m 4,6 v 4"
         stroke="#000000"
         stroke-width="2"
         stroke-linecap="round"
         stroke-linejoin="round"
         id="path48113"
         style="fill:none;fill-opacity:1;stroke:#eee8de;stroke-opacity:1" /></g></g></svg>
